<?xml version="1.0" encoding="utf-8"?>
<!-- Generator: Adobe Illustrator 16.0.3, SVG Export Plug-In . SVG Version: 6.00 Build 0)  -->
<!DOCTYPE svg PUBLIC "-//W3C//DTD SVG 1.1//EN" "http://www.w3.org/Graphics/SVG/1.1/DTD/svg11.dtd">
<svg version="1.1" id="圖層_1" xmlns="http://www.w3.org/2000/svg" xmlns:xlink="http://www.w3.org/1999/xlink" x="0px" y="0px"
	 width="558.887px" height="560px" viewBox="0 0 558.887 560" enable-background="new 0 0 558.887 560" xml:space="preserve">
<rect y="1.113" fill="#4D6E8E" width="558.887" height="558.887"/>
<g>
	<polygon fill="#FFFFFF" points="279.887,232.138 234.887,207.718 234.887,232.733 253.737,241.805 234.887,250.872 
		234.887,275.887 279.887,251.47 	"/>
	<polygon fill="#FFFFFF" points="297.342,275.564 261.3,307.46 285.088,315.191 299.542,300.066 302.343,320.798 326.131,328.528 
		315.726,281.535 	"/>
	<polygon fill="#FFFFFF" points="343.277,272.467 362.475,316.601 377.18,296.365 367.261,277.945 387.841,281.689 402.545,261.452 
		354.638,256.828 	"/>
	<path fill="#FFFFFF" d="M463.731,240.495c29.305-25.867,37.382-70.266,6.812-112.341c-31.775-43.732-75.425-47.817-109.121-26.167
		c-15.688-35.58-55.284-56.724-104.526-40.724c-51.308,16.672-68.714,56.79-58.672,95.453
		c-38.503,4.106-70.621,35.189-70.621,86.784c0,54.148,33.02,83.112,73.092,85.32c-8.18,37.986,11.432,78.324,60.643,94.313
		c50.958,16.558,88.458-5.253,103.271-41.978c33.531,19.133,77.638,12.787,107.889-28.846
		C504.25,308.604,494.682,265.857,463.731,240.495z M438.586,329.329c-19.068,26.246-44.676,31.423-62.051,18.797
		c-2.694-1.958-4.924-4.115-6.809-6.444c-1.399-8.845-4.583-17.454-9.583-25.71l-30.332,12.26c0.071,0.129,0.139,0.261,0.209,0.391
		l-1.214,0.313c1.115,7.521,3.497,15.539,7.503,23.25c-0.078,3.598-0.646,7.268-1.846,10.961
		c-7.259,22.341-30.261,30.865-61.75,20.634c-30.851-10.024-43.688-32.778-37.051-53.208c1.328-4.083,3.202-7.552,5.513-10.585
		c6.939-3.936,13.267-9.136,18.876-15.633l-20.323-24.218l-0.565-0.884c-0.042,0.021-0.082,0.044-0.124,0.065l-0.021-0.025
		c-0.021,0.024-0.044,0.048-0.066,0.071c-6.12,3.064-12.29,7.236-17.889,12.563c-4.241,1.634-8.855,2.584-13.815,2.584
		c-23.489,0-38.704-19.241-38.704-52.354c0-32.44,17.675-51.679,39.153-51.679c3.852,0,7.371,0.574,10.653,1.599
		c6.076,5.768,13.278,10.459,21.597,13.955l17.244-27.602l0.397-0.481c-5.07-5.171-11.335-10.028-18.633-13.833
		c-2.51-3.299-4.568-7.058-5.959-11.343c-7.259-22.34,6.338-42.756,37.829-52.988c30.85-10.023,54.612,0.839,61.249,21.268
		c1.307,4.022,1.829,7.875,1.764,11.633c-3.394,7.353-5.489,15.403-6.217,24.088l31.743,7.913c0.004-0.023,0.008-0.045,0.011-0.069
		l0.03,0.014c3.206-6.14,5.799-13.231,7.211-20.94c2.45-3.728,5.573-7.129,9.509-9.988c19.002-13.807,42.621-7.183,62.084,19.604
		c19.067,26.244,16.076,52.198-1.3,64.824c-3.688,2.678-7.467,4.435-11.357,5.52c-7.919-0.893-16.089-0.384-24.438,1.574
		l2.284,32.636c0.343-0.068,0.69-0.125,1.034-0.188c6.384,1.029,13.375,1.299,20.579,0.442c4.51,1.16,8.917,3.122,13.032,6.112
		C457.048,278.033,458.048,302.541,438.586,329.329z"/>
	<polygon fill="#FFFFFF" points="402.586,221.757 387.883,201.52 367.301,205.261 377.22,186.846 362.519,166.608 343.316,210.741 
		354.679,226.378 	"/>
	<polygon fill="#FFFFFF" points="314.509,201.809 324.917,154.818 301.128,162.548 298.324,183.278 283.876,168.154 
		260.084,175.882 296.124,207.783 	"/>
</g>
</svg>
